<svg width="160" height="160" viewBox="0 0 160 160" fill="none" xmlns="http://www.w3.org/2000/svg">
<rect width="160" height="160" rx="80" fill="#072125"/>
<rect width="160" height="160" rx="80" fill="white"/>
<g clip-path="url(#clip0_1332_4585)">
<path d="M80.4999 114.072C99.1594 114.072 114.286 98.8173 114.286 80.0001C114.286 61.183 99.1594 45.9287 80.4999 45.9287C61.8404 45.9287 46.7139 61.183 46.7139 80.0001C46.7139 98.8173 61.8404 114.072 80.4999 114.072Z" fill="#ECF6F2"/>
<path d="M53.7904 100.887C49.346 95.1433 46.7139 87.8765 46.7139 80.0439" stroke="#F1B43F" stroke-width="3" stroke-miterlimit="10"/>
<path d="M80.5 45.9287C99.1406 45.9287 114.286 61.2021 114.286 80.0001" stroke="#F1B43F" stroke-width="3" stroke-miterlimit="10"/>
<path d="M93.0565 127.256L91.9346 123.035C111.222 117.857 124.685 100.147 124.685 79.9562C124.685 59.9398 111.309 42.2732 92.1935 36.9644L93.3154 32.7871C114.329 38.5745 128.957 57.9817 128.957 79.9562C129 102.148 114.243 121.556 93.0565 127.256Z" fill="#00343C"/>
<path d="M93.9195 44.1445L80.5 33.266L96.5516 27L93.9195 44.1445Z" fill="#00343C"/>
<path d="M67.6415 127.169C46.6708 121.382 32 101.975 32 80.0001C32 58.1561 46.5414 38.7924 67.3826 32.918L68.5476 37.0953C49.5618 42.4475 36.3149 60.1142 36.3149 80.0001C36.3149 100.016 49.6913 117.683 68.8065 122.992L67.6415 127.169Z" fill="#00343C"/>
<path d="M67.0804 115.855L80.4998 126.734L64.4482 133L67.0804 115.855Z" fill="#00343C"/>
<path d="M79.6801 99.4076L91.201 77.3896H81.3197V62.5078L69.7988 84.5259H79.6801V99.4076Z" fill="#F1B43F"/>
</g>
<defs>
<clipPath id="clip0_1332_4585">
<rect width="97" height="106" fill="white" transform="translate(32 27)"/>
</clipPath>
</defs>
</svg>
