<svg width="160" height="160" viewBox="0 0 160 160" fill="none" xmlns="http://www.w3.org/2000/svg">
<rect width="160" height="160" rx="80" fill="#072125"/>
<rect width="160" height="160" rx="80" fill="white"/>
<g clip-path="url(#clip0_1332_4605)">
<path d="M71.2471 88.125L44.2414 115.25C43.951 115.542 43.4947 115.625 43.1214 115.458L14.6638 101.792C14.2904 101.625 14.2075 101.125 14.4979 100.833L41.5035 73.7083C41.7939 73.4167 42.2502 73.3333 42.6236 73.5L71.0811 87.1666C71.413 87.375 71.496 87.875 71.2471 88.125Z" fill="#ECF6F2" stroke="#BFDCD9" stroke-width="1.5813" stroke-miterlimit="10" stroke-dasharray="3.16 3.16"/>
<path d="M104.558 54.6667L77.594 81.75C77.3036 82.0417 76.8473 82.125 76.4739 81.9583L48.0163 68.2917C47.643 68.125 47.56 67.625 47.8504 67.3333L74.8561 40.2083C75.1464 39.9167 75.6028 39.8333 75.9761 40L104.434 53.6667C104.766 53.875 104.849 54.375 104.558 54.6667Z" fill="#ECF6F2" stroke="#BFDCD9" stroke-width="1.5813" stroke-miterlimit="10" stroke-dasharray="3.16 3.16"/>
<path d="M142.391 72.792L115.385 99.917C115.095 100.209 114.639 100.292 114.265 100.125L85.8078 86.4586C85.4345 86.292 85.3515 85.792 85.6419 85.5003L112.648 58.3753C112.938 58.0836 113.394 58.0003 113.768 58.167L142.225 71.8336C142.557 72.0003 142.64 72.5003 142.391 72.792Z" fill="#ECF6F2" stroke="#BFDCD9" stroke-width="1.5813" stroke-miterlimit="10" stroke-dasharray="3.16 3.16"/>
<path d="M109.039 106.292L82.0329 133.375C81.7425 133.667 81.2862 133.75 80.9129 133.583L52.4553 119.917C52.0819 119.75 51.999 119.25 52.2894 118.958L79.295 91.8333C79.5854 91.5417 80.0417 91.4583 80.4151 91.625L108.873 105.292C109.246 105.5 109.329 106 109.039 106.292Z" fill="#ECF6F2" stroke="#BFDCD9" stroke-width="1.5813" stroke-miterlimit="10" stroke-dasharray="3.16 3.16"/>
<path d="M71.2471 75.2086L44.2414 102.334C43.951 102.625 43.4947 102.709 43.1214 102.542L14.6638 88.8336C14.2904 88.667 14.2075 88.167 14.4979 87.8753L41.5035 60.7503C41.7939 60.4586 42.2502 60.3753 42.6236 60.542L71.0811 74.2086C71.413 74.417 71.496 74.917 71.2471 75.2086Z" fill="#00343C"/>
<path d="M104.558 41.7086L77.594 68.792C77.3036 69.0836 76.8473 69.167 76.4739 69.0003L48.0163 55.3336C47.643 55.167 47.56 54.667 47.8504 54.3753L74.8561 27.2503C75.1464 26.9586 75.6028 26.8753 75.9761 27.042L104.392 40.7503C104.766 40.917 104.849 41.417 104.558 41.7086Z" fill="#00343C"/>
<path d="M142.391 59.834L115.385 86.959C115.095 87.2506 114.639 87.334 114.265 87.1673L85.8078 73.5006C85.4345 73.334 85.3515 72.834 85.6419 72.5423L112.648 45.4173C112.938 45.1256 113.394 45.0423 113.768 45.209L142.225 58.8756C142.557 59.0423 142.64 59.5423 142.391 59.834Z" fill="#00343C"/>
<path d="M109.039 93.334L82.0329 120.459C81.7425 120.751 81.2862 120.834 80.9128 120.667L52.4138 107.001C52.0404 106.834 51.9575 106.334 52.2479 106.042L79.2535 78.9173C79.5439 78.6256 80.0002 78.5423 80.3736 78.709L108.831 92.3756C109.246 92.5423 109.329 93.0423 109.039 93.334Z" fill="#00343C"/>
<path d="M130.651 55.1663L129.614 57.4997L128.535 55.208C126.71 51.2497 123.516 48.1247 119.575 46.2913L117.252 45.2497L119.534 44.1663C123.474 42.333 126.586 39.1247 128.411 35.1663L129.448 32.833L130.527 35.1247C132.352 39.083 135.546 42.208 139.487 44.0413L141.81 45.083L139.529 46.1663C135.588 47.9997 132.435 51.1663 130.651 55.1663Z" fill="#F1B43F" stroke="#00343C" stroke-width="1.4065" stroke-miterlimit="10"/>
<path d="M139.86 69.833L139.363 70.958L138.823 69.833C137.911 67.8747 136.334 66.333 134.385 65.458L133.265 64.958L134.385 64.4163C136.334 63.4997 137.869 61.9163 138.74 59.958L139.238 58.833L139.778 59.958C140.69 61.9163 142.267 63.458 144.216 64.333L145.336 64.833L144.216 65.3747C142.267 66.2913 140.732 67.8747 139.86 69.833Z" fill="#F1B43F" stroke="#00343C" stroke-width="1.2645" stroke-miterlimit="10"/>
<path d="M127.042 79.9163L126.627 80.833L126.213 79.9163C125.466 78.333 124.221 77.083 122.604 76.333L121.691 75.9163L122.604 75.4997C124.18 74.7497 125.424 73.4997 126.171 71.8747L126.586 70.958L127.001 71.8747C127.747 73.458 128.992 74.708 130.61 75.458L131.522 75.8747L130.61 76.2913C129.033 77.083 127.789 78.333 127.042 79.9163Z" fill="#F1B43F" stroke="#00343C" stroke-width="1.0255" stroke-miterlimit="10"/>
</g>
<defs>
<clipPath id="clip0_1332_4605">
<rect width="132" height="107" fill="white" transform="translate(14 27)"/>
</clipPath>
</defs>
</svg>
