<svg width="160" height="160" viewBox="0 0 160 160" fill="none" xmlns="http://www.w3.org/2000/svg">
<rect width="160" height="160" rx="80" fill="#072125"/>
<rect width="160" height="160" rx="80" fill="white"/>
<path d="M73.2721 64.3617C74.439 64.3617 75.6059 64.7724 76.5092 65.5192L113.585 96.0249C116.973 99.6468 114.715 104.575 110.198 104.575C109.972 104.575 109.746 104.575 109.52 104.538C109.483 104.538 109.483 104.538 109.445 104.538C109.106 104.538 108.843 104.874 108.918 105.21C109.595 108.272 107.6 111.408 103.874 111.408C103.159 111.408 102.331 111.296 101.465 111.035C101.427 111.035 101.352 110.998 101.314 110.998C100.976 110.998 100.712 111.296 100.75 111.632C101.314 115.068 99.169 118.204 95.4425 118.204C94.6521 118.204 93.824 118.055 92.9206 117.756C92.8453 117.719 92.8077 117.719 92.7324 117.719C92.3936 117.719 92.1301 118.017 92.1678 118.391C92.6195 120.519 91.5279 123.432 88.3661 123.432C87.1616 123.432 85.6559 123.021 83.8492 121.975L34.201 92.2537L49.6337 65.6686C49.6337 65.6686 51.2523 65.7432 53.7742 65.7432C58.3287 65.7432 65.9322 65.5565 72.444 64.4737C72.7075 64.399 72.971 64.3617 73.2721 64.3617ZM73.2721 62.8682C72.8957 62.8682 72.5569 62.9055 72.1805 62.9428C65.5934 64.0257 57.8018 64.2124 53.7366 64.2124C51.2523 64.2124 49.6714 64.1377 49.6714 64.1377H49.6337C49.1068 64.1377 48.5798 64.4364 48.3163 64.8845L32.8836 91.4696C32.4695 92.179 32.6954 93.0752 33.4106 93.4859L83.134 123.282C83.134 123.282 83.134 123.282 83.1716 123.282C85.0913 124.402 86.8604 124.962 88.4413 124.962C90.5869 124.962 91.8666 123.954 92.5442 123.095C93.3346 122.125 93.7863 120.855 93.824 119.511C94.3886 119.623 94.9532 119.66 95.4802 119.66C97.588 119.66 99.4324 118.839 100.712 117.345C101.804 116.076 102.368 114.433 102.368 112.715C102.895 112.79 103.385 112.865 103.874 112.865C106.02 112.865 107.864 112.043 109.106 110.512C110.122 109.28 110.612 107.675 110.536 106.032C113.058 105.92 115.204 104.501 116.183 102.298C117.237 99.9081 116.634 97.1077 114.639 94.9794C114.602 94.9421 114.564 94.9048 114.489 94.8301L77.4126 64.3244C76.2834 63.4282 74.7777 62.8682 73.2721 62.8682Z" fill="#D8EEED"/>
<path d="M53.0212 60.1424L32.7704 94.9421L23.0215 89.64L33.1468 43.7881L53.0212 60.1424Z" fill="#F1B43F"/>
<path d="M75.6968 105.879L92.9881 118.785" stroke="#D8EEED" stroke-width="1.5" stroke-miterlimit="10" stroke-linejoin="round"/>
<path d="M81.5903 96.5107L101.766 111.633" stroke="#D8EEED" stroke-width="1.5" stroke-miterlimit="10" stroke-linejoin="round"/>
<path d="M86.1074 87.4004L109.972 105.136" stroke="#D8EEED" stroke-width="1.5" stroke-miterlimit="10" stroke-linejoin="round"/>
<path d="M108.24 63.0547L103.497 66.1538C102.029 67.0873 100.26 67.386 98.5665 66.9006L87.4624 63.7268C85.9192 63.2787 84.2253 63.5028 82.8326 64.2869L67.0235 73.3975C65.819 74.1069 65.5179 75.7125 66.4213 76.758C68.9432 79.7451 75.3798 83.8897 89.6832 75.9365L114.526 96.3608L123.71 89.4531L108.24 63.0547Z" fill="#D8EEED"/>
<path d="M40.2608 105.136C42.1428 107.19 45.3423 107.339 47.3749 105.472L53.1339 100.282C55.2042 98.415 55.3547 95.2412 53.4727 93.2249C51.5906 91.1713 48.3912 91.0219 46.3586 92.8889L40.5995 98.079C38.5293 99.9085 38.3787 103.082 40.2608 105.136Z" fill="#D8EEED"/>
<path d="M47.0362 112.529C48.9182 114.583 52.1177 114.732 54.1503 112.865L62.243 105.547C64.3133 103.68 64.4638 100.506 62.5818 98.4896C60.6998 96.4359 57.5003 96.2866 55.4677 98.1535L47.3749 105.472C45.3047 107.339 45.1541 110.513 47.0362 112.529Z" fill="#D8EEED"/>
<path d="M55.1665 118.726C57.0486 120.78 60.248 120.929 62.2806 119.062L70.3734 111.744C72.4436 109.877 72.5942 106.703 70.7122 104.687C68.8301 102.633 65.6307 102.484 63.5981 104.351L55.5053 111.669C53.4351 113.536 53.2845 116.71 55.1665 118.726Z" fill="#D8EEED"/>
<path d="M65.2168 123.207C67.0989 125.261 70.2983 125.41 72.3309 123.544L76.7349 119.586C78.8051 117.719 78.9557 114.545 77.0737 112.529C75.1916 110.475 71.9922 110.326 69.9596 112.193L65.5556 116.15C63.4854 118.017 63.3348 121.154 65.2168 123.207Z" fill="#D8EEED"/>
<path d="M106.697 60.1424L126.947 94.9421L136.696 89.64L126.571 43.7881L106.697 60.1424Z" fill="#00343C"/>
<path d="M28.5923 64.3613L23.0215 89.6396L27.6889 92.1786" stroke="#00343C" stroke-width="2" stroke-miterlimit="10"/>
<path d="M118.667 50.3224L126.571 43.7881L130.824 63.0548" stroke="#F1B43F" stroke-width="2" stroke-miterlimit="10"/>
</svg>
