{
	"asset":{
		"generator":"Khronos glTF Blender I/O v3.5.30",
		"version":"2.0"
	},
	"extensionsUsed":[
		"KHR_materials_specular",
		"KHR_materials_ior"
	],
	"scene":0,
	"scenes":[
		{
			"name":"Scene",
			"nodes":[
				0,
				1,
				2,
				3,
				4,
				5
			]
		}
	],
	"nodes":[
		{
			"mesh":0,
			"name":"Plane.037",
			"rotation":[
				0.7071068286895752,
				-0.7071068286895752,
				0,
				3.062662017327966e-07
			],
			"scale":[
				0.02761475183069706,
				0.40220290422439575,
				0.04350549727678299
			],
			"translation":[
				0.2002396583557129,
				-1.9608649015426636,
				0.008643686771392822
			]
		},
		{
			"mesh":1,
			"name":"Cylinder.104",
			"scale":[
				1.1617952585220337,
				1.1617952585220337,
				1.2657802104949951
			],
			"translation":[
				0.0008106231689453125,
				0.04714643955230713,
				0.008288919925689697
			]
		},
		{
			"mesh":2,
			"name":"Cylinder.102",
			"scale":[
				1.1617952585220337,
				1.1617952585220337,
				1.2657802104949951
			],
			"translation":[
				0.0013175010681152344,
				0.047145962715148926,
				0.008288919925689697
			]
		},
		{
			"mesh":3,
			"name":"Cylinder.088",
			"rotation":[
				0,
				-1,
				0,
				8.998680164733208e-14
			],
			"scale":[
				1.2545948028564453,
				1.1617952585220337,
				8.349506378173828
			],
			"translation":[
				-0.1580944061279297,
				-0.06766831874847412,
				0.005591928958892822
			]
		},
		{
			"mesh":4,
			"name":"Cylinder.087",
			"rotation":[
				0,
				-1,
				0,
				8.998680164733208e-14
			],
			"scale":[
				1.1617952585220337,
				1.1617952585220337,
				8.349506378173828
			],
			"translation":[
				0.0007266998291015625,
				-1.9429467916488647,
				0.005591928958892822
			]
		},
		{
			"mesh":5,
			"name":"Cylinder.084",
			"rotation":[
				0,
				-1,
				0,
				8.998680164733208e-14
			],
			"scale":[
				1.1617952585220337,
				1.1617952585220337,
				8.349506378173828
			],
			"translation":[
				0.0007185935974121094,
				-0.4101656675338745,
				0.012684941291809082
			]
		}
	],
	"materials":[
		{
			"doubleSided":true,
			"emissiveFactor":[
				0.027748899534344673,
				1,
				0
			],
			"name":"Material.003",
			"pbrMetallicRoughness":{
				"baseColorFactor":[
					0,
					0,
					0,
					1
				]
			}
		},
		{
			"doubleSided":true,
			"extensions":{
				"KHR_materials_specular":{
					"specularColorFactor":[
						0.6467338434498618,
						0.6467338434498618,
						0.6467338434498618
					]
				},
				"KHR_materials_ior":{
					"ior":1.4500000476837158
				}
			},
			"name":"Black Plastic.001",
			"pbrMetallicRoughness":{
				"baseColorFactor":[
					0,
					0,
					0,
					1
				],
				"metallicFactor":0
			}
		},
		{
			"doubleSided":true,
			"extensions":{
				"KHR_materials_specular":{
					"specularColorFactor":[
						0.18324123679827042,
						0.18324123679827042,
						0.18324123679827042
					]
				},
				"KHR_materials_ior":{
					"ior":1.4500000476837158
				}
			},
			"name":"Ceramic brake disc.001",
			"normalTexture":{
				"index":0,
				"texCoord":1
			},
			"pbrMetallicRoughness":{
				"baseColorTexture":{
					"index":1,
					"texCoord":1
				},
				"metallicRoughnessTexture":{
					"index":2,
					"texCoord":1
				}
			}
		},
		{
			"doubleSided":true,
			"name":"Material.002",
			"pbrMetallicRoughness":{
				"baseColorFactor":[
					0,
					0,
					0,
					1
				],
				"metallicFactor":0,
				"roughnessFactor":0.5
			}
		}
	],
	"meshes":[
		{
			"name":"Plane.025",
			"primitives":[
				{
					"attributes":{
						"POSITION":0,
						"TEXCOORD_0":1,
						"NORMAL":2
					},
					"indices":3,
					"material":0
				}
			]
		},
		{
			"name":"Cylinder.088",
			"primitives":[
				{
					"attributes":{
						"POSITION":4,
						"TEXCOORD_0":5,
						"TEXCOORD_1":6,
						"NORMAL":7
					},
					"indices":8,
					"material":1
				}
			]
		},
		{
			"name":"Cylinder.086",
			"primitives":[
				{
					"attributes":{
						"POSITION":9,
						"TEXCOORD_0":10,
						"TEXCOORD_1":11,
						"NORMAL":12
					},
					"indices":13,
					"material":1
				}
			]
		},
		{
			"name":"Cylinder.077",
			"primitives":[
				{
					"attributes":{
						"POSITION":14,
						"TEXCOORD_0":15,
						"TEXCOORD_1":16,
						"NORMAL":17
					},
					"indices":18,
					"material":2
				}
			]
		},
		{
			"name":"Cylinder.076",
			"primitives":[
				{
					"attributes":{
						"POSITION":19,
						"TEXCOORD_0":20,
						"TEXCOORD_1":21,
						"NORMAL":22
					},
					"indices":23,
					"material":2
				}
			]
		},
		{
			"name":"Cylinder.073",
			"primitives":[
				{
					"attributes":{
						"POSITION":24,
						"TEXCOORD_0":25,
						"TEXCOORD_1":26,
						"NORMAL":27
					},
					"indices":28,
					"material":2
				},
				{
					"attributes":{
						"POSITION":29,
						"TEXCOORD_0":30,
						"TEXCOORD_1":31,
						"NORMAL":32
					},
					"indices":33,
					"material":3
				}
			]
		}
	],
	"textures":[
		{
			"sampler":0,
			"source":0
		},
		{
			"sampler":0,
			"source":1
		},
		{
			"sampler":0,
			"source":2
		}
	],
	"images":[
		{
			"mimeType":"image/jpeg",
			"name":"Ceramic_brake_disc_Normal",
			"uri":"Ceramic_brake_disc_Normal.jpg"
		},
		{
			"mimeType":"image/jpeg",
			"name":"Ceramic_brake_disc_BaseColor",
			"uri":"Ceramic_brake_disc_BaseColor.jpg"
		},
		{
			"mimeType":"image/png",
			"name":"Ceramic_brake_disc_Metallic.jpg-Ceramic_brake_disc_Roughness.jpg",
			"uri":"Ceramic_brake_disc_Metallic_jpg-Ceramic_brake_disc_Roughness_jpg.png"
		}
	],
	"accessors":[
		{
			"bufferView":0,
			"componentType":5126,
			"count":2712,
			"max":[
				1,
				0.007000000216066837,
				1
			],
			"min":[
				-33.55999755859375,
				0,
				-1
			],
			"type":"VEC3"
		},
		{
			"bufferView":1,
			"componentType":5126,
			"count":2712,
			"type":"VEC2"
		},
		{
			"bufferView":2,
			"componentType":5126,
			"count":2712,
			"type":"VEC3"
		},
		{
			"bufferView":3,
			"componentType":5123,
			"count":8640,
			"type":"SCALAR"
		},
		{
			"bufferView":4,
			"componentType":5126,
			"count":100,
			"max":[
				-0.0029533097986131907,
				1.7382358312606812,
				0.9988388419151306
			],
			"min":[
				-0.1754550337791443,
				-1.8007171154022217,
				-1.0011612176895142
			],
			"type":"VEC3"
		},
		{
			"bufferView":5,
			"componentType":5126,
			"count":100,
			"type":"VEC2"
		},
		{
			"bufferView":6,
			"componentType":5126,
			"count":100,
			"type":"VEC2"
		},
		{
			"bufferView":7,
			"componentType":5126,
			"count":100,
			"type":"VEC3"
		},
		{
			"bufferView":8,
			"componentType":5123,
			"count":228,
			"type":"SCALAR"
		},
		{
			"bufferView":9,
			"componentType":5126,
			"count":264,
			"max":[
				0.17589643597602844,
				1.7382358312606812,
				0.9988388419151306
			],
			"min":[
				0.0033947343472391367,
				-1.8007171154022217,
				-1.0011612176895142
			],
			"type":"VEC3"
		},
		{
			"bufferView":10,
			"componentType":5126,
			"count":264,
			"type":"VEC2"
		},
		{
			"bufferView":11,
			"componentType":5126,
			"count":264,
			"type":"VEC2"
		},
		{
			"bufferView":12,
			"componentType":5126,
			"count":264,
			"type":"VEC3"
		},
		{
			"bufferView":13,
			"componentType":5123,
			"count":630,
			"type":"SCALAR"
		},
		{
			"bufferView":14,
			"componentType":5126,
			"count":4,
			"max":[
				2.637505531311035e-06,
				1.6617368459701538,
				0.14249169826507568
			],
			"min":[
				-2.652406692504883e-06,
				-1.6616566181182861,
				-0.14249172806739807
			],
			"type":"VEC3"
		},
		{
			"bufferView":15,
			"componentType":5126,
			"count":4,
			"type":"VEC2"
		},
		{
			"bufferView":16,
			"componentType":5126,
			"count":4,
			"type":"VEC2"
		},
		{
			"bufferView":17,
			"componentType":5126,
			"count":4,
			"type":"VEC3"
		},
		{
			"bufferView":18,
			"componentType":5123,
			"count":6,
			"type":"SCALAR"
		},
		{
			"bufferView":19,
			"componentType":5126,
			"count":42,
			"max":[
				0.14767053723335266,
				3.4175312519073486,
				0.14246422052383423
			],
			"min":[
				-0.14767055213451385,
				3.269892692565918,
				-0.14246422052383423
			],
			"type":"VEC3"
		},
		{
			"bufferView":20,
			"componentType":5126,
			"count":42,
			"type":"VEC2"
		},
		{
			"bufferView":21,
			"componentType":5126,
			"count":42,
			"type":"VEC2"
		},
		{
			"bufferView":22,
			"componentType":5126,
			"count":42,
			"type":"VEC3"
		},
		{
			"bufferView":23,
			"componentType":5123,
			"count":102,
			"type":"SCALAR"
		},
		{
			"bufferView":24,
			"componentType":5126,
			"count":2976,
			"max":[
				0.14767377078533173,
				2.1041760444641113,
				0.14334116876125336
			],
			"min":[
				-0.14767786860466003,
				-1.3668559789657593,
				-0.1416422575712204
			],
			"type":"VEC3"
		},
		{
			"bufferView":25,
			"componentType":5126,
			"count":2976,
			"type":"VEC2"
		},
		{
			"bufferView":26,
			"componentType":5126,
			"count":2976,
			"type":"VEC2"
		},
		{
			"bufferView":27,
			"componentType":5126,
			"count":2976,
			"type":"VEC3"
		},
		{
			"bufferView":28,
			"componentType":5123,
			"count":7086,
			"type":"SCALAR"
		},
		{
			"bufferView":29,
			"componentType":5126,
			"count":140,
			"max":[
				0.13700075447559357,
				1.8637763261795044,
				-0.13614831864833832
			],
			"min":[
				-0.13699841499328613,
				1.0251671075820923,
				-0.13615526258945465
			],
			"type":"VEC3"
		},
		{
			"bufferView":30,
			"componentType":5126,
			"count":140,
			"type":"VEC2"
		},
		{
			"bufferView":31,
			"componentType":5126,
			"count":140,
			"type":"VEC2"
		},
		{
			"bufferView":32,
			"componentType":5126,
			"count":140,
			"type":"VEC3"
		},
		{
			"bufferView":33,
			"componentType":5123,
			"count":210,
			"type":"SCALAR"
		}
	],
	"bufferViews":[
		{
			"buffer":0,
			"byteLength":32544,
			"byteOffset":0,
			"target":34962
		},
		{
			"buffer":0,
			"byteLength":21696,
			"byteOffset":32544,
			"target":34962
		},
		{
			"buffer":0,
			"byteLength":32544,
			"byteOffset":54240,
			"target":34962
		},
		{
			"buffer":0,
			"byteLength":17280,
			"byteOffset":86784,
			"target":34963
		},
		{
			"buffer":0,
			"byteLength":1200,
			"byteOffset":104064,
			"target":34962
		},
		{
			"buffer":0,
			"byteLength":800,
			"byteOffset":105264,
			"target":34962
		},
		{
			"buffer":0,
			"byteLength":800,
			"byteOffset":106064,
			"target":34962
		},
		{
			"buffer":0,
			"byteLength":1200,
			"byteOffset":106864,
			"target":34962
		},
		{
			"buffer":0,
			"byteLength":456,
			"byteOffset":108064,
			"target":34963
		},
		{
			"buffer":0,
			"byteLength":3168,
			"byteOffset":108520,
			"target":34962
		},
		{
			"buffer":0,
			"byteLength":2112,
			"byteOffset":111688,
			"target":34962
		},
		{
			"buffer":0,
			"byteLength":2112,
			"byteOffset":113800,
			"target":34962
		},
		{
			"buffer":0,
			"byteLength":3168,
			"byteOffset":115912,
			"target":34962
		},
		{
			"buffer":0,
			"byteLength":1260,
			"byteOffset":119080,
			"target":34963
		},
		{
			"buffer":0,
			"byteLength":48,
			"byteOffset":120340,
			"target":34962
		},
		{
			"buffer":0,
			"byteLength":32,
			"byteOffset":120388,
			"target":34962
		},
		{
			"buffer":0,
			"byteLength":32,
			"byteOffset":120420,
			"target":34962
		},
		{
			"buffer":0,
			"byteLength":48,
			"byteOffset":120452,
			"target":34962
		},
		{
			"buffer":0,
			"byteLength":12,
			"byteOffset":120500,
			"target":34963
		},
		{
			"buffer":0,
			"byteLength":504,
			"byteOffset":120512,
			"target":34962
		},
		{
			"buffer":0,
			"byteLength":336,
			"byteOffset":121016,
			"target":34962
		},
		{
			"buffer":0,
			"byteLength":336,
			"byteOffset":121352,
			"target":34962
		},
		{
			"buffer":0,
			"byteLength":504,
			"byteOffset":121688,
			"target":34962
		},
		{
			"buffer":0,
			"byteLength":204,
			"byteOffset":122192,
			"target":34963
		},
		{
			"buffer":0,
			"byteLength":35712,
			"byteOffset":122396,
			"target":34962
		},
		{
			"buffer":0,
			"byteLength":23808,
			"byteOffset":158108,
			"target":34962
		},
		{
			"buffer":0,
			"byteLength":23808,
			"byteOffset":181916,
			"target":34962
		},
		{
			"buffer":0,
			"byteLength":35712,
			"byteOffset":205724,
			"target":34962
		},
		{
			"buffer":0,
			"byteLength":14172,
			"byteOffset":241436,
			"target":34963
		},
		{
			"buffer":0,
			"byteLength":1680,
			"byteOffset":255608,
			"target":34962
		},
		{
			"buffer":0,
			"byteLength":1120,
			"byteOffset":257288,
			"target":34962
		},
		{
			"buffer":0,
			"byteLength":1120,
			"byteOffset":258408,
			"target":34962
		},
		{
			"buffer":0,
			"byteLength":1680,
			"byteOffset":259528,
			"target":34962
		},
		{
			"buffer":0,
			"byteLength":420,
			"byteOffset":261208,
			"target":34963
		}
	],
	"samplers":[
		{
			"magFilter":9729,
			"minFilter":9987
		}
	],
	"buffers":[
		{
			"byteLength":261628,
			"uri":"untitled.bin"
		}
	]
}
