{
	"asset":{
		"generator":"Khronos glTF Blender I/O v3.5.30",
		"version":"2.0"
	},
	"extensionsUsed":[
		"KHR_materials_emissive_strength"
	],
	"scene":0,
	"scenes":[
		{
			"name":"Scene",
			"nodes":[
				0,
				1,
				2,
				3
			]
		}
	],
	"nodes":[
		{
			"mesh":0,
			"name":"Text.006",
			"rotation":[
				0.5000002384185791,
				0.4999997019767761,
				-0.5000002980232239,
				0.4999997615814209
			],
			"scale":[
				0.13713648915290833,
				0.1371365189552307,
				0.1371365189552307
			],
			"translation":[
				-4.3222503662109375,
				6.570739269256592,
				0.970870852470398
			]
		},
		{
			"mesh":1,
			"name":"Text.005",
			"rotation":[
				0.5000002384185791,
				0.4999997019767761,
				-0.5000002980232239,
				0.4999997615814209
			],
			"scale":[
				0.08033622056245804,
				0.08033623546361923,
				0.08033623546361923
			],
			"translation":[
				-4.320344924926758,
				6.555143356323242,
				0.8798788785934448
			]
		},
		{
			"mesh":2,
			"name":"Cylinder.102",
			"scale":[
				1.1617952585220337,
				1.1617952585220337,
				1.2657802104949951
			],
			"translation":[
				-4.560877323150635,
				6.897954940795898,
				0.9482879638671875
			]
		},
		{
			"mesh":3,
			"name":"Cylinder.101",
			"scale":[
				1.1617952585220337,
				0.018227411434054375,
				1.265779972076416
			],
			"translation":[
				-4.560622215270996,
				4.886229038238525,
				0.9468115568161011
			]
		}
	],
	"materials":[
		{
			"doubleSided":true,
			"emissiveFactor":[
				1,
				1,
				1
			],
			"extensions":{
				"KHR_materials_emissive_strength":{
					"emissiveStrength":5
				}
			},
			"name":"Material.011",
			"pbrMetallicRoughness":{
				"baseColorFactor":[
					0,
					0,
					0,
					1
				]
			}
		},
		{
			"doubleSided":true,
			"emissiveFactor":[
				1,
				1,
				1
			],
			"extensions":{
				"KHR_materials_emissive_strength":{
					"emissiveStrength":5
				}
			},
			"name":"Material.012",
			"pbrMetallicRoughness":{
				"baseColorFactor":[
					0,
					0,
					0,
					1
				]
			}
		},
		{
			"doubleSided":true,
			"name":"Material.004",
			"pbrMetallicRoughness":{
				"baseColorFactor":[
					0,
					0,
					0,
					1
				],
				"metallicFactor":0,
				"roughnessFactor":0.6338582634925842
			}
		},
		{
			"doubleSided":true,
			"name":"Material.009",
			"pbrMetallicRoughness":{}
		},
		{
			"doubleSided":true,
			"name":"Material.014",
			"pbrMetallicRoughness":{}
		},
		{
			"doubleSided":true,
			"emissiveFactor":[
				0.027748899534344673,
				1,
				0
			],
			"name":"Material.001",
			"pbrMetallicRoughness":{
				"baseColorFactor":[
					0,
					0,
					0,
					1
				]
			}
		},
		{
			"doubleSided":true,
			"emissiveFactor":[
				1,
				1,
				1
			],
			"extensions":{
				"KHR_materials_emissive_strength":{
					"emissiveStrength":1.4999998807907104
				}
			},
			"name":"Material.010",
			"pbrMetallicRoughness":{
				"baseColorFactor":[
					0,
					0,
					0,
					1
				]
			}
		},
		{
			"doubleSided":true,
			"name":"Material",
			"pbrMetallicRoughness":{
				"baseColorFactor":[
					0.11493562906980515,
					0.11493562906980515,
					0.11493562906980515,
					1
				],
				"metallicFactor":0,
				"roughnessFactor":0.5
			}
		},
		{
			"doubleSided":true,
			"emissiveFactor":[
				0.027748899534344673,
				1,
				0
			],
			"name":"Material.003",
			"pbrMetallicRoughness":{
				"baseColorFactor":[
					0,
					0,
					0,
					1
				]
			}
		},
		{
			"doubleSided":true,
			"emissiveFactor":[
				0.0811498835682869,
				0.07494373619556427,
				0.07084328681230545
			],
			"name":"Material.013",
			"pbrMetallicRoughness":{
				"baseColorFactor":[
					0,
					0,
					0,
					1
				]
			}
		}
	],
	"meshes":[
		{
			"name":"Text.008",
			"primitives":[
				{
					"attributes":{
						"POSITION":0,
						"TEXCOORD_0":1,
						"NORMAL":2
					},
					"indices":3,
					"material":0
				}
			]
		},
		{
			"name":"Text.007",
			"primitives":[
				{
					"attributes":{
						"POSITION":4,
						"TEXCOORD_0":5,
						"NORMAL":6
					},
					"indices":7,
					"material":1
				}
			]
		},
		{
			"name":"Cylinder.086",
			"primitives":[
				{
					"attributes":{
						"POSITION":8,
						"TEXCOORD_0":9,
						"TEXCOORD_1":10,
						"NORMAL":11
					},
					"indices":12,
					"material":2
				},
				{
					"attributes":{
						"POSITION":13,
						"TEXCOORD_0":14,
						"TEXCOORD_1":15,
						"NORMAL":16
					},
					"indices":17,
					"material":3
				},
				{
					"attributes":{
						"POSITION":18,
						"TEXCOORD_0":19,
						"TEXCOORD_1":20,
						"NORMAL":21
					},
					"indices":22,
					"material":4
				},
				{
					"attributes":{
						"POSITION":23,
						"TEXCOORD_0":24,
						"TEXCOORD_1":25,
						"NORMAL":26
					},
					"indices":27,
					"material":5
				},
				{
					"attributes":{
						"POSITION":28,
						"TEXCOORD_0":29,
						"TEXCOORD_1":30,
						"NORMAL":31
					},
					"indices":32,
					"material":6
				},
				{
					"attributes":{
						"POSITION":33,
						"TEXCOORD_0":34,
						"TEXCOORD_1":35,
						"NORMAL":36
					},
					"indices":37,
					"material":7
				},
				{
					"attributes":{
						"POSITION":38,
						"TEXCOORD_0":39,
						"TEXCOORD_1":40,
						"NORMAL":41
					},
					"indices":42,
					"material":8
				}
			]
		},
		{
			"name":"Cylinder.001",
			"primitives":[
				{
					"attributes":{
						"POSITION":43,
						"TEXCOORD_0":44,
						"NORMAL":45
					},
					"indices":46,
					"material":9
				}
			]
		}
	],
	"accessors":[
		{
			"bufferView":0,
			"componentType":5126,
			"count":528,
			"max":[
				0.45662781596183777,
				0.016999993473291397,
				0.2576356530189514
			],
			"min":[
				-0.24157772958278656,
				-0.016999993473291397,
				-0.3806188106536865
			],
			"type":"VEC3"
		},
		{
			"bufferView":1,
			"componentType":5126,
			"count":528,
			"type":"VEC2"
		},
		{
			"bufferView":2,
			"componentType":5126,
			"count":528,
			"type":"VEC3"
		},
		{
			"bufferView":3,
			"componentType":5123,
			"count":1560,
			"type":"SCALAR"
		},
		{
			"bufferView":4,
			"componentType":5126,
			"count":826,
			"max":[
				0.11767876148223877,
				0.009999999776482582,
				0.26230689883232117
			],
			"min":[
				-0.11767877638339996,
				-0.009999999776482582,
				-0.2623068690299988
			],
			"type":"VEC3"
		},
		{
			"bufferView":5,
			"componentType":5126,
			"count":826,
			"type":"VEC2"
		},
		{
			"bufferView":6,
			"componentType":5126,
			"count":826,
			"type":"VEC3"
		},
		{
			"bufferView":7,
			"componentType":5123,
			"count":2436,
			"type":"SCALAR"
		},
		{
			"bufferView":8,
			"componentType":5126,
			"count":364,
			"max":[
				0.17589643597602844,
				1.738236904144287,
				0.9988388419151306
			],
			"min":[
				-0.17589157819747925,
				-1.8007171154022217,
				-1.0011612176895142
			],
			"type":"VEC3"
		},
		{
			"bufferView":9,
			"componentType":5126,
			"count":364,
			"type":"VEC2"
		},
		{
			"bufferView":10,
			"componentType":5126,
			"count":364,
			"type":"VEC2"
		},
		{
			"bufferView":11,
			"componentType":5126,
			"count":364,
			"type":"VEC3"
		},
		{
			"bufferView":12,
			"componentType":5123,
			"count":858,
			"type":"SCALAR"
		},
		{
			"bufferView":13,
			"componentType":5126,
			"count":134,
			"max":[
				0.2066536545753479,
				-0.18424835801124573,
				0.07442978769540787
			],
			"min":[
				0.14382697641849518,
				-1.7488250732421875,
				-0.07678679376840591
			],
			"type":"VEC3"
		},
		{
			"bufferView":14,
			"componentType":5126,
			"count":134,
			"type":"VEC2"
		},
		{
			"bufferView":15,
			"componentType":5126,
			"count":134,
			"type":"VEC2"
		},
		{
			"bufferView":16,
			"componentType":5126,
			"count":134,
			"type":"VEC3"
		},
		{
			"bufferView":17,
			"componentType":5123,
			"count":378,
			"type":"SCALAR"
		},
		{
			"bufferView":18,
			"componentType":5126,
			"count":32,
			"max":[
				0.1953478455543518,
				-0.17674565315246582,
				-0.00926295854151249
			],
			"min":[
				0.19534777104854584,
				-0.30463138222694397,
				-0.08378361165523529
			],
			"type":"VEC3"
		},
		{
			"bufferView":19,
			"componentType":5126,
			"count":32,
			"type":"VEC2"
		},
		{
			"bufferView":20,
			"componentType":5126,
			"count":32,
			"type":"VEC2"
		},
		{
			"bufferView":21,
			"componentType":5126,
			"count":32,
			"type":"VEC3"
		},
		{
			"bufferView":22,
			"componentType":5123,
			"count":90,
			"type":"SCALAR"
		},
		{
			"bufferView":23,
			"componentType":5126,
			"count":53360,
			"max":[
				0.19844461977481842,
				0.5157835483551025,
				0.08137071132659912
			],
			"min":[
				0.1597999483346939,
				-1.8079227209091187,
				-0.9989738464355469
			],
			"type":"VEC3"
		},
		{
			"bufferView":24,
			"componentType":5126,
			"count":53360,
			"type":"VEC2"
		},
		{
			"bufferView":25,
			"componentType":5126,
			"count":53360,
			"type":"VEC2"
		},
		{
			"bufferView":26,
			"componentType":5126,
			"count":53360,
			"type":"VEC3"
		},
		{
			"bufferView":27,
			"componentType":5123,
			"count":242772,
			"type":"SCALAR"
		},
		{
			"bufferView":28,
			"componentType":5126,
			"count":959,
			"max":[
				0.1944548636674881,
				1.244111180305481,
				0.27032431960105896
			],
			"min":[
				0.13415974378585815,
				-0.3567389249801636,
				-0.2726549804210663
			],
			"type":"VEC3"
		},
		{
			"bufferView":29,
			"componentType":5126,
			"count":959,
			"type":"VEC2"
		},
		{
			"bufferView":30,
			"componentType":5126,
			"count":959,
			"type":"VEC2"
		},
		{
			"bufferView":31,
			"componentType":5126,
			"count":959,
			"type":"VEC3"
		},
		{
			"bufferView":32,
			"componentType":5123,
			"count":2496,
			"type":"SCALAR"
		},
		{
			"bufferView":33,
			"componentType":5126,
			"count":3116,
			"max":[
				0.14716562628746033,
				1.7105516195297241,
				0.9377918243408203
			],
			"min":[
				-0.14818792045116425,
				-1.7604811191558838,
				-0.9420533776283264
			],
			"type":"VEC3"
		},
		{
			"bufferView":34,
			"componentType":5126,
			"count":3116,
			"type":"VEC2"
		},
		{
			"bufferView":35,
			"componentType":5126,
			"count":3116,
			"type":"VEC2"
		},
		{
			"bufferView":36,
			"componentType":5126,
			"count":3116,
			"type":"VEC3"
		},
		{
			"bufferView":37,
			"componentType":5123,
			"count":7296,
			"type":"SCALAR"
		},
		{
			"bufferView":38,
			"componentType":5126,
			"count":2724,
			"max":[
				0.1712213158607483,
				-0.9306797981262207,
				0.034650761634111404
			],
			"min":[
				0.16879697144031525,
				-1.752137541770935,
				-0.03409023582935333
			],
			"type":"VEC3"
		},
		{
			"bufferView":39,
			"componentType":5126,
			"count":2724,
			"type":"VEC2"
		},
		{
			"bufferView":40,
			"componentType":5126,
			"count":2724,
			"type":"VEC2"
		},
		{
			"bufferView":41,
			"componentType":5126,
			"count":2724,
			"type":"VEC3"
		},
		{
			"bufferView":42,
			"componentType":5123,
			"count":8640,
			"type":"SCALAR"
		},
		{
			"bufferView":43,
			"componentType":5126,
			"count":1722,
			"max":[
				0.17458124458789825,
				144.6544952392578,
				-0.9569117426872253
			],
			"min":[
				0.1534595936536789,
				-4.213394641876221,
				-1.0019711256027222
			],
			"type":"VEC3"
		},
		{
			"bufferView":44,
			"componentType":5126,
			"count":1722,
			"type":"VEC2"
		},
		{
			"bufferView":45,
			"componentType":5126,
			"count":1722,
			"type":"VEC3"
		},
		{
			"bufferView":46,
			"componentType":5123,
			"count":9600,
			"type":"SCALAR"
		}
	],
	"bufferViews":[
		{
			"buffer":0,
			"byteLength":6336,
			"byteOffset":0,
			"target":34962
		},
		{
			"buffer":0,
			"byteLength":4224,
			"byteOffset":6336,
			"target":34962
		},
		{
			"buffer":0,
			"byteLength":6336,
			"byteOffset":10560,
			"target":34962
		},
		{
			"buffer":0,
			"byteLength":3120,
			"byteOffset":16896,
			"target":34963
		},
		{
			"buffer":0,
			"byteLength":9912,
			"byteOffset":20016,
			"target":34962
		},
		{
			"buffer":0,
			"byteLength":6608,
			"byteOffset":29928,
			"target":34962
		},
		{
			"buffer":0,
			"byteLength":9912,
			"byteOffset":36536,
			"target":34962
		},
		{
			"buffer":0,
			"byteLength":4872,
			"byteOffset":46448,
			"target":34963
		},
		{
			"buffer":0,
			"byteLength":4368,
			"byteOffset":51320,
			"target":34962
		},
		{
			"buffer":0,
			"byteLength":2912,
			"byteOffset":55688,
			"target":34962
		},
		{
			"buffer":0,
			"byteLength":2912,
			"byteOffset":58600,
			"target":34962
		},
		{
			"buffer":0,
			"byteLength":4368,
			"byteOffset":61512,
			"target":34962
		},
		{
			"buffer":0,
			"byteLength":1716,
			"byteOffset":65880,
			"target":34963
		},
		{
			"buffer":0,
			"byteLength":1608,
			"byteOffset":67596,
			"target":34962
		},
		{
			"buffer":0,
			"byteLength":1072,
			"byteOffset":69204,
			"target":34962
		},
		{
			"buffer":0,
			"byteLength":1072,
			"byteOffset":70276,
			"target":34962
		},
		{
			"buffer":0,
			"byteLength":1608,
			"byteOffset":71348,
			"target":34962
		},
		{
			"buffer":0,
			"byteLength":756,
			"byteOffset":72956,
			"target":34963
		},
		{
			"buffer":0,
			"byteLength":384,
			"byteOffset":73712,
			"target":34962
		},
		{
			"buffer":0,
			"byteLength":256,
			"byteOffset":74096,
			"target":34962
		},
		{
			"buffer":0,
			"byteLength":256,
			"byteOffset":74352,
			"target":34962
		},
		{
			"buffer":0,
			"byteLength":384,
			"byteOffset":74608,
			"target":34962
		},
		{
			"buffer":0,
			"byteLength":180,
			"byteOffset":74992,
			"target":34963
		},
		{
			"buffer":0,
			"byteLength":640320,
			"byteOffset":75172,
			"target":34962
		},
		{
			"buffer":0,
			"byteLength":426880,
			"byteOffset":715492,
			"target":34962
		},
		{
			"buffer":0,
			"byteLength":426880,
			"byteOffset":1142372,
			"target":34962
		},
		{
			"buffer":0,
			"byteLength":640320,
			"byteOffset":1569252,
			"target":34962
		},
		{
			"buffer":0,
			"byteLength":485544,
			"byteOffset":2209572,
			"target":34963
		},
		{
			"buffer":0,
			"byteLength":11508,
			"byteOffset":2695116,
			"target":34962
		},
		{
			"buffer":0,
			"byteLength":7672,
			"byteOffset":2706624,
			"target":34962
		},
		{
			"buffer":0,
			"byteLength":7672,
			"byteOffset":2714296,
			"target":34962
		},
		{
			"buffer":0,
			"byteLength":11508,
			"byteOffset":2721968,
			"target":34962
		},
		{
			"buffer":0,
			"byteLength":4992,
			"byteOffset":2733476,
			"target":34963
		},
		{
			"buffer":0,
			"byteLength":37392,
			"byteOffset":2738468,
			"target":34962
		},
		{
			"buffer":0,
			"byteLength":24928,
			"byteOffset":2775860,
			"target":34962
		},
		{
			"buffer":0,
			"byteLength":24928,
			"byteOffset":2800788,
			"target":34962
		},
		{
			"buffer":0,
			"byteLength":37392,
			"byteOffset":2825716,
			"target":34962
		},
		{
			"buffer":0,
			"byteLength":14592,
			"byteOffset":2863108,
			"target":34963
		},
		{
			"buffer":0,
			"byteLength":32688,
			"byteOffset":2877700,
			"target":34962
		},
		{
			"buffer":0,
			"byteLength":21792,
			"byteOffset":2910388,
			"target":34962
		},
		{
			"buffer":0,
			"byteLength":21792,
			"byteOffset":2932180,
			"target":34962
		},
		{
			"buffer":0,
			"byteLength":32688,
			"byteOffset":2953972,
			"target":34962
		},
		{
			"buffer":0,
			"byteLength":17280,
			"byteOffset":2986660,
			"target":34963
		},
		{
			"buffer":0,
			"byteLength":20664,
			"byteOffset":3003940,
			"target":34962
		},
		{
			"buffer":0,
			"byteLength":13776,
			"byteOffset":3024604,
			"target":34962
		},
		{
			"buffer":0,
			"byteLength":20664,
			"byteOffset":3038380,
			"target":34962
		},
		{
			"buffer":0,
			"byteLength":19200,
			"byteOffset":3059044,
			"target":34963
		}
	],
	"buffers":[
		{
			"byteLength":3078244,
			"uri":"data:application/octet-stream;base64,"
		}
	]
}
